<svg width="79" height="89" viewBox="0 0 79 89" fill="none" xmlns="http://www.w3.org/2000/svg">
<path d="M1 73.4706V14.5882C1 10.9844 2.43161 7.52819 4.9799 4.9799C7.52819 2.43161 10.9844 1 14.5882 1H64.4118V59.8824H14.5882C7.1147 59.8824 1 65.9608 1 73.4706Z" fill="#023047" stroke="#023047" stroke-width="2" stroke-linejoin="round"/>
<path d="M64.4118 59.8825H14.5882C10.9844 59.8825 7.52819 61.3141 4.9799 63.8624C2.43161 66.4107 1 69.8669 1 73.4707C1 77.0745 2.43161 80.5308 4.9799 83.079C7.52819 85.6273 10.9844 87.0589 14.5882 87.0589H78V5.52954M16.8529 73.4707H62.1471" stroke="#023047" stroke-width="2" stroke-linecap="round" stroke-linejoin="round"/>
<line x1="30.5836" y1="36.6273" x2="15.6682" y2="48.5596" stroke="#FEF7F5" stroke-dasharray="2 2"/>
<path d="M50.9629 15.2215C50.6807 15.2116 50.3978 15.2522 50.1249 15.3418L50.1215 15.3414C49.8604 15.4216 48.6152 15.8349 46.7226 16.4607L39.9388 18.7159C35.0711 20.3333 30.2857 21.9269 30.2857 21.9269L30.3425 21.91C30.3425 21.91 30.0164 21.9875 29.6604 22.1981C29.4414 22.3165 29.2456 22.4831 29.0853 22.6875C28.8941 22.9304 28.718 23.3155 28.717 23.7351C28.7128 24.4443 29.0708 24.9122 29.336 25.1784C29.6044 25.4479 29.8736 25.5908 29.8736 25.5908L29.8805 25.5916L33.9443 27.6882C34.0545 28.3922 34.6821 32.5671 34.8377 33.53C34.9288 34.105 35.0401 34.471 35.1994 34.7591C35.2746 34.9056 35.3712 35.032 35.4893 35.1384C35.5509 35.1911 35.6189 35.2341 35.6914 35.2664L35.6492 35.2496C35.6618 35.255 35.6709 35.2679 35.68 35.2729C35.7136 35.2877 35.7366 35.2943 35.7801 35.3073C36.4265 35.6136 37.0221 35.2122 37.0221 35.2122L37.0558 35.1886L39.8666 32.9402L43.65 37.0305L43.7404 37.0874C44.5667 37.6194 45.483 37.4857 46.002 37.1204C46.5249 36.7526 46.7726 36.2324 46.7726 36.2324L46.8133 36.1487L52.2537 17.9885C52.4001 17.5418 52.4742 17.1161 52.4214 16.6882C52.3665 16.2546 52.1666 15.8638 51.8611 15.5929C51.6043 15.3709 51.2913 15.2415 50.9629 15.2215ZM50.6404 17.1984C50.6297 17.2591 50.6409 17.2535 50.6027 17.368L50.6014 17.3786L45.2143 35.3496C45.1972 35.3741 45.167 35.4285 45.0958 35.4781C45.0208 35.5302 44.9623 35.5616 44.6941 35.4032L40.0663 30.4032L36.5853 33.1908L37.7865 28.6244L47.2246 20.8921C47.6135 20.5743 47.5066 20.485 47.5066 20.485C47.5829 20.0478 46.9985 20.2943 46.9985 20.2943L35.5328 26.3551L35.5316 26.3353L30.6746 23.8305L30.6751 23.8267L30.6624 23.8222L30.6899 23.8137L30.7196 23.8014L30.7478 23.794C30.7478 23.794 35.5367 22.2007 40.4044 20.5834C42.8415 19.7731 45.2969 18.9572 47.1857 18.3269C48.3056 17.9549 49.4263 17.5859 50.5478 17.2199C50.6228 17.1973 50.589 17.1924 50.6404 17.1984Z" fill="#FEF7F5"/>
</svg>
