<svg width="21" height="24" viewBox="0 0 21 24" fill="none" xmlns="http://www.w3.org/2000/svg">
<path d="M1 19.1742V4.82586C1 3.94768 1.34885 3.10548 1.96981 2.48452C2.59077 1.86356 3.43297 1.51471 4.31115 1.51471H16.452V15.863H4.31115C2.49002 15.863 1 17.3442 1 19.1742Z" fill="#FEF7F5" stroke="#FEF7F5" stroke-width="2" stroke-linejoin="round"/>
<path d="M16.452 15.863H4.31115C3.43298 15.863 2.59077 16.2118 1.96981 16.8328C1.34885 17.4538 1 18.296 1 19.1741C1 20.0523 1.34885 20.8945 1.96981 21.5155C2.59077 22.1364 3.43298 22.4853 4.31115 22.4853H19.7632V2.61841M4.863 19.1741H15.9002" stroke="#FEF7F5" stroke-width="2" stroke-linecap="round" stroke-linejoin="round"/>
<line x1="8.4451" y1="10.4917" x2="4.81055" y2="13.3993" stroke="black" stroke-dasharray="2 2"/>
<path d="M13.1748 4.98033C13.1061 4.97791 13.0371 4.98781 12.9706 5.00964L12.9698 5.00954C12.9062 5.02909 12.6028 5.1298 12.1416 5.28231L10.4885 5.83184C9.30236 6.22595 8.13627 6.61429 8.13627 6.61429L8.1501 6.61017C8.1501 6.61017 8.07063 6.62905 7.98389 6.68037C7.93053 6.70922 7.88282 6.74982 7.84374 6.79963C7.79717 6.85881 7.75425 6.95266 7.75402 7.05491C7.75298 7.22772 7.84021 7.34172 7.90484 7.4066C7.97024 7.47228 8.03583 7.50709 8.03583 7.50709L8.03753 7.50729L9.02777 8.01818C9.05464 8.18974 9.20757 9.20706 9.24549 9.44171C9.26768 9.58181 9.2948 9.671 9.33363 9.74121C9.35193 9.7769 9.37548 9.80771 9.40426 9.83362C9.41928 9.84646 9.43585 9.85695 9.4535 9.86482L9.44323 9.86073C9.4463 9.86205 9.44851 9.86519 9.45073 9.86641C9.45891 9.87001 9.46453 9.87163 9.47513 9.8748C9.63263 9.94944 9.77778 9.8516 9.77778 9.8516L9.78599 9.84586L10.4709 9.29798L11.3928 10.2947L11.4149 10.3086C11.6162 10.4382 11.8395 10.4056 11.966 10.3166C12.0934 10.227 12.1537 10.1002 12.1537 10.1002L12.1637 10.0798L13.4894 5.65457C13.525 5.54573 13.5431 5.442 13.5302 5.33772C13.5169 5.23208 13.4681 5.13684 13.3937 5.07083C13.3311 5.01674 13.2549 4.98521 13.1748 4.98033ZM13.0962 5.46206C13.0936 5.47684 13.0964 5.47549 13.0871 5.50337L13.0867 5.50597L11.774 9.88508C11.7699 9.89106 11.7625 9.90432 11.7451 9.91641C11.7269 9.9291 11.7126 9.93676 11.6473 9.89815L10.5196 8.67978L9.67134 9.35904L9.96404 8.2463L12.2639 6.36212C12.3586 6.28468 12.3326 6.26293 12.3326 6.26293C12.3512 6.15638 12.2088 6.21646 12.2088 6.21646L9.41486 7.69334L9.41457 7.68852L8.23104 7.07816L8.23115 7.07722L8.22805 7.07613L8.23475 7.07405L8.24199 7.07107L8.24887 7.06925C8.24887 7.06925 9.41581 6.68101 10.602 6.2869C11.1958 6.08946 11.7942 5.89063 12.2544 5.73706C12.5273 5.6464 12.8004 5.55648 13.0737 5.4673C13.092 5.4618 13.0837 5.46058 13.0962 5.46206Z" fill="black"/>
</svg>
