<svg width="32" height="35" viewBox="0 0 32 35" fill="none" xmlns="http://www.w3.org/2000/svg">
<path d="M1 28.7647V6.20588C1 4.8252 1.54848 3.50106 2.52477 2.52477C3.50106 1.54848 4.8252 1 6.20588 1H25.2941V23.5588H6.20588C3.34265 23.5588 1 25.8876 1 28.7647Z" fill="#023047" stroke="#023047" stroke-width="2" stroke-linejoin="round"/>
<path d="M25.2941 23.5588H6.20588C4.8252 23.5588 3.50106 24.1073 2.52477 25.0836C1.54848 26.0599 1 27.384 1 28.7647C1 30.1454 1.54848 31.4695 2.52477 32.4458C3.50106 33.4221 4.8252 33.9706 6.20588 33.9706H30.5V2.73529M7.07353 28.7647H24.4265" stroke="#023047" stroke-width="2" stroke-linecap="round" stroke-linejoin="round"/>
<line x1="12.5267" y1="14.8904" x2="6.81235" y2="19.4619" stroke="#EEEAE4" stroke-dasharray="2 2"/>
<path d="M14.8136 14.0985L15.8905 13.2371L14.7387 13.9983M14.8136 14.0985L14.742 13.996L14.7387 13.9983M14.8136 14.0985L14.8007 14.1075M14.8136 14.0985L14.3249 14.144C14.5725 14.2613 14.8007 14.1075 14.8007 14.1075M14.7387 13.9983L15.8124 13.1395L15.9032 13.0668L15.9822 13.1522L17.4205 14.7071L17.4411 14.7201L17.4423 14.7208C17.7142 14.8959 18.0101 14.8483 18.1691 14.7364L18.1691 14.7364C18.2547 14.6762 18.3191 14.6024 18.3625 14.5424C18.384 14.5127 18.3998 14.487 18.41 14.4693C18.4151 14.4605 18.4187 14.4537 18.421 14.4494L18.4232 14.4449L18.4234 14.4446L18.4234 14.4446L18.4235 14.4445L18.4235 14.4444L18.4236 14.4443L18.4236 14.4442L18.4239 14.4436L18.4351 14.4207L20.5165 7.47294L20.5174 7.46989L20.5174 7.4699C20.5702 7.30875 20.5935 7.1652 20.5764 7.02599C20.5588 6.8881 20.4957 6.76719 20.4034 6.68508C20.3256 6.61803 20.2324 6.57985 20.1356 6.57361C20.043 6.57055 19.9498 6.58395 19.8596 6.61358L19.8334 6.6222L19.8312 6.62194C19.72 6.65726 19.4019 6.76248 18.9294 6.9188C18.8141 6.95696 18.6895 6.99817 18.5565 7.04216C18.5564 7.04217 18.5564 7.04219 18.5564 7.0422L15.9576 7.90613L15.9575 7.90613C15.0251 8.21594 14.1006 8.52348 13.4091 8.75357L12.575 9.03122L12.3418 9.10885L12.2804 9.12929L12.2771 9.13039L12.2773 9.13103L12.2555 9.1375L12.2554 9.137L12.255 9.13711C12.2434 9.1405 12.2261 9.14592 12.2047 9.15367C12.1617 9.16926 12.1038 9.19376 12.044 9.22918L12.0398 9.23164L12.0398 9.23155C11.9716 9.26841 11.9096 9.32083 11.8583 9.38626L11.8582 9.38641C11.799 9.4616 11.7442 9.58276 11.7439 9.71074L11.7439 9.7112C11.7425 9.93598 11.8547 10.085 11.9446 10.1752L11.9446 10.1752C11.9893 10.2201 12.0344 10.2547 12.0684 10.2781C12.0832 10.2883 12.0957 10.2962 12.1048 10.3018L12.1219 10.3106L13.6788 11.1139L13.7352 11.1429L13.745 11.2056C13.7611 11.3082 13.8052 11.5988 13.8571 11.9409C13.9429 12.5065 14.05 13.213 14.0872 13.4431L14.0873 13.4435C14.1212 13.6574 14.1609 13.7814 14.2118 13.8734L14.2137 13.8769L14.2136 13.8769C14.2354 13.9194 14.2628 13.9552 14.2958 13.9852C14.3102 13.9973 14.3256 14.0069 14.3417 14.0141L14.341 14.0157C14.3438 14.0174 14.3463 14.019 14.3485 14.0205C14.3514 14.0214 14.3553 14.0226 14.3607 14.0242L14.3698 14.0269L14.3784 14.031C14.4675 14.0733 14.5541 14.0677 14.623 14.0491C14.6574 14.0398 14.6859 14.0276 14.7054 14.0178C14.7151 14.013 14.7224 14.0089 14.7268 14.0063L14.7309 14.0038C14.7309 14.0038 14.7308 14.0038 14.8007 14.1075M14.7387 13.9983L14.7309 14.0038L14.7291 14.0051L14.8007 14.1075M14.3663 14.0349L14.3652 14.0339C14.366 14.0346 14.3666 14.0352 14.3668 14.0353L14.3663 14.0349ZM11.6189 9.71045L11.6189 9.71045L11.6189 9.71045ZM20.1412 7.22783L20.1641 7.09751L20.0327 7.082L20.0241 7.08105C20.0213 7.08077 20.0157 7.08027 20.0091 7.08023C20.0018 7.08018 19.9916 7.08066 19.9798 7.08318C19.9676 7.08576 19.9582 7.08955 19.9524 7.09218C19.951 7.09281 19.9494 7.09357 19.948 7.09423C19.9476 7.09435 19.9472 7.0945 19.9466 7.09468L19.9466 7.09465L19.9438 7.09554C19.514 7.23582 19.0844 7.37726 18.6551 7.51987L18.655 7.51992C18.0248 7.7302 17.2299 7.99446 16.4183 8.26427C16.2981 8.30423 16.1775 8.34431 16.0571 8.38436C15.1246 8.69418 14.1997 9.00168 13.5079 9.23174L12.6733 9.50934L12.4399 9.58696L12.3785 9.60739L12.3628 9.61262L12.3612 9.61316L12.3541 9.61503L12.3461 9.61714L12.3385 9.62027L12.3323 9.62284L12.3271 9.62446L11.9657 9.73682L12.31 9.8573L12.3116 9.85811L14.1092 10.7851L14.117 10.9154L14.2885 10.8247L18.6125 8.53907L15.0143 11.4869L14.983 11.5126L14.9727 11.5518L14.5125 13.3013L14.4162 13.6671L14.7115 13.4307L15.9543 12.4354L17.6482 14.2656L17.6606 14.279L17.6764 14.2883C17.7294 14.3196 17.7813 14.3448 17.8329 14.3497C17.901 14.3562 17.9453 14.3259 17.9652 14.3121L17.9653 14.312C17.99 14.2947 18.0081 14.2763 18.0213 14.26C18.0323 14.2465 18.0442 14.2282 18.0419 14.2314L18.0533 14.2151L18.059 14.196L20.1229 7.31107L20.126 7.30064L20.1263 7.29805C20.132 7.28012 20.1359 7.26542 20.1382 7.25077C20.1394 7.24358 20.1401 7.23678 20.1404 7.23404L20.1404 7.2332L20.1412 7.22783ZM19.9819 7.3461L17.9392 14.1601L20.0102 7.27326L20.0098 7.27596L20.0097 7.27713L20.0079 7.29202L20.0202 7.32956C20.0237 7.32918 20.0276 7.32859 20.0318 7.3277C20.0425 7.32542 20.0507 7.3221 20.0551 7.32009L20.0582 7.31866L20.057 7.31923C20.0548 7.32035 20.0515 7.32196 20.0472 7.32379C20.0392 7.32727 20.0304 7.33047 20.0201 7.33361C20.0074 7.33777 19.9946 7.34193 19.9819 7.3461Z" fill="#EEEAE4" stroke="#EEEAE4" stroke-width="0.25"/>
</svg>
